0
SECTION
2
HEADER
9
$INSUNITS
70
4
9
$ACADVER
1
AC1014
9
$HANDSEED
5
FFFF
0
ENDSEC
0
SECTION
2
TABLES
0
TABLE
2
VPORT
5
8
100
AcDbSymbolTable
0
ENDTAB
0
TABLE
2
LTYPE
5
5
100
AcDbSymbolTable
0
LTYPE
5
14
100
AcDbSymbolTableRecord
100
AcDbLinetypeTableRecord
2
BYBLOCK
70
0
0
LTYPE
5
15
100
AcDbSymbolTableRecord
100
AcDbLinetypeTableRecord
2
BYLAYER
70
0
0
ENDTAB
0
TABLE
2
LAYER
5
2
100
AcDbSymbolTable
70
2
0
LAYER
5
50
100
AcDbSymbolTableRecord
100
AcDbLayerTableRecord
2
0
70
0
6
CONTINUOUS
0
ENDTAB
0
TABLE
2
STYLE
5
3
100
AcDbSymbolTable
70
1
0
STYLE
5
11
100
AcDbSymbolTableRecord
100
AcDbTextStyleTableRecord
2
STANDARD
70
0
0
ENDTAB
0
TABLE
2
VIEW
5
6
100
AcDbSymbolTable
70
0
0
ENDTAB
0
TABLE
2
UCS
5
7
100
AcDbSymbolTable
70
0
0
ENDTAB
0
TABLE
2
APPID
5
9
100
AcDbSymbolTable
70
2
0
APPID
5
12
100
AcDbSymbolTableRecord
100
AcDbRegAppTableRecord
2
ACAD
70
0
0
ENDTAB
0
TABLE
2
DIMSTYLE
5
A
100
AcDbSymbolTable
70
1
0
ENDTAB
0
TABLE
2
BLOCK_RECORD
5
1
100
AcDbSymbolTable
70
1
0
BLOCK_RECORD
5
1F
100
AcDbSymbolTableRecord
100
AcDbBlockTableRecord
2
*MODEL_SPACE
0
BLOCK_RECORD
5
1B
100
AcDbSymbolTableRecord
100
AcDbBlockTableRecord
2
*PAPER_SPACE
0
ENDTAB
0
ENDSEC
0
SECTION
2
BLOCKS
0
BLOCK
5
20
100
AcDbEntity
100
AcDbBlockBegin
2
*MODEL_SPACE
0
ENDBLK
5
21
100
AcDbEntity
100
AcDbBlockEnd
0
BLOCK
5
1C
100
AcDbEntity
100
AcDbBlockBegin
2
*PAPER_SPACE
0
ENDBLK
5
1D
100
AcDbEntity
100
AcDbBlockEnd
0
ENDSEC
0
SECTION
2
ENTITIES
0
LWPOLYLINE
5
100
100
AcDbEntity
8
0
100
AcDbPolyline
90
4
70
1
43
0.0
10
-25
20
25
10
25
20
25
10
25
20
-25
10
-25
20
-25
0
LINE
5
101
100
AcDbEntity
8
0
100
AcDbLine
10
0
20
25
30
0
11
-8.5725275940314732e-16
21
21.5
31
0
0
SPLINE
5
102
100
AcDbEntity
8
0
100
AcDbSpline
70
6
71
5
72
51
73
45
74
0
42
0.000000001
43
0.0000000001
44
0.0000000001
40
0
40
0
40
0
40
0
40
0
40
0
40
0.025000000000000001
40
0.050000000000000003
40
0.075000000000000011
40
0.10000000000000001
40
0.125
40
0.14999999999999999
40
0.17499999999999999
40
0.19999999999999998
40
0.22499999999999998
40
0.24999999999999997
40
0.27499999999999997
40
0.29999999999999999
40
0.32500000000000001
40
0.35000000000000003
40
0.37500000000000006
40
0.40000000000000008
40
0.4250000000000001
40
0.45000000000000012
40
0.47500000000000014
40
0.50000000000000011
40
0.52500000000000013
40
0.55000000000000016
40
0.57500000000000018
40
0.6000000000000002
40
0.62500000000000022
40
0.65000000000000024
40
0.67500000000000027
40
0.70000000000000029
40
0.72500000000000031
40
0.75000000000000033
40
0.77500000000000036
40
0.80000000000000038
40
0.8250000000000004
40
0.85000000000000042
40
0.87500000000000044
40
0.90000000000000047
40
0.92500000000000049
40
0.95000000000000051
40
0.97500000000000053
40
1
40
1
40
1
40
1
40
1
40
1
41
1
41
1
41
1
41
1
41
1
41
1
41
1
41
1
41
1
41
1
41
1
41
1
41
1
41
1
41
1
41
1
41
1
41
1
41
1
41
1
41
1
41
1
41
1
41
1
41
1
41
1
41
1
41
1
41
1
41
1
41
1
41
1
41
1
41
1
41
1
41
1
41
1
41
1
41
1
41
1
41
1
41
1
41
1
41
1
41
1
10
0
20
-15
30
0
10
1.2064713623814152
20
-14.999999999998224
30
0
10
3.625350884218375
20
-15.146500606521748
30
0
10
7.1572426187128109
20
-15.813181825170712
30
0
10
11.204682654133471
20
-17.44132982350758
30
0
10
15.130884689144224
20
-19.63257993640163
30
0
10
18.001157434491791
20
-20.83520780625264
30
0
10
20.051142660102649
20
-20.130057443717028
30
0
10
20.675231708131648
20
-17.673526871445112
30
0
10
19.511478967976895
20
-14.160424090238916
30
0
10
17.396224798858476
20
-9.8730680427507593
30
0
10
15.402113222461207
20
-5.0946289487106666
30
0
10
14.589667260793824
20
-0.018417327857308992
30
0
10
15.451239320063145
20
5.133686900240142
30
0
10
17.498569883116513
20
10.073104941564905
30
0
10
19.668475635374946
20
14.470472188932327
30
0
10
20.838035914646944
20
17.93489840633934
30
0
10
20.126018170041785
20
20.133716381556937
30
0
10
17.679338669096587
20
20.566249483002107
30
0
10
14.166482896640012
20
19.278298437535465
30
0
10
9.8728890850041857
20
17.155043505640293
30
0
10
5.0880272086667535
20
15.272326650631223
30
0
10
0.015330415441012213
20
14.601080790773672
30
0
10
-5.1204955312408593
20
15.55647107201592
30
0
10
-10.040520117184762
20
17.624883514472096
30
0
10
-14.430722121535069
20
19.759451807223609
30
0
10
-17.907601437481265
20
20.871804961887097
30
0
10
-20.138569214100869
20
20.118265882421138
30
0
10
-20.583290581748422
20
17.661948438391612
30
0
10
-19.264414179937546
20
14.161308477835181
30
0
10
-17.100429119392714
20
9.8864246268793785
30
0
10
-15.207262482082722
20
5.1088135127820111
30
0
10
-14.588165335308062
20
0.020362542757944718
30
0
10
-15.649276767962601
20
-5.1519987202991793
30
0
10
-17.810638249096609
20
-10.107537053462796
30
0
10
-19.940621458329584
20
-14.503840213902951
30
0
10
-20.950931261830235
20
-17.950458778053328
30
0
10
-20.038591616043412
20
-20.121924820260976
30
0
10
-17.75194044530668
20
-20.575707833869057
30
0
10
-14.841564429333605
20
-19.372686670983214
30
0
10
-11.020778935438369
20
-17.31752166883583
30
0
10
-7.0919378508977378
20
-15.798324846625501
30
0
10
-3.6134772900701035
20
-15.146500606532257
30
0
10
-1.2064713623813896
20
-15.000000000001776
30
0
10
0
20
-15
30
0
0
ENDSEC
0
SECTION
2
OBJECTS
0
DICTIONARY
5
C
100
AcDbDictionary
3
ACAD_GROUP
350
D
3
ACAD_MLINESTYLE
350
17
0
DICTIONARY
5
D
100
AcDbDictionary
0
DICTIONARY
5
1A
330
C
100
AcDbDictionary
0
DICTIONARY
5
17
100
AcDbDictionary
0
ENDSEC
0
EOF
